{"title":"Nautanki Saala 2013 1/3 DVDScrRip Xvid AC3 (IcTv) - Hindi","uid":8372607,"size":1554873092,"categoryP":"video","categoryS":"movies","magnet":"?xt=urn:btih:2581059b1a2f8b8f8c3a91435c0a7f7499c808af&amp;dn=Nautanki+Saala+2013+1%2F3+DVDScrRip+Xvid+AC3+%28IcTv%29+-+Hindi&amp;tr=udp%3A%2F%2Ftracker.openbittorrent.com%3A80&amp;tr=udp%3A%2F%2Fopen.demonii.com%3A1337&amp;tr=udp%3A%2F%2Ftracker.coppersurfer.tk%3A6969&amp;tr=udp%3A%2F%2Fexodus.desync.com%3A6969","seeders":1,"leechers":0,"uploader":"SJonam","files":1,"time":1365959377,"description":" &lt;a href=&quot;http://desibbrg.org/images/66952052392581364616.gif&quot; rel=&quot;nofollow&quot; target=&quot;_NEW&quot;&gt;http://desibbrg.org/images/66952052392581364616.gif&lt;/a&gt; &lt;a href=&quot;\nhttp://desibbrg.org/images/11692667004324651460.png&quot; rel=&quot;nofollow&quot; target=&quot;_NEW&quot;&gt;\nhttp://desibbrg.org/images/11692667004324651460.png&lt;/a&gt; &lt;a href=&quot;\nhttp://desibbrg.org/images/41750931003069203332.png&quot; rel=&quot;nofollow&quot; target=&quot;_NEW&quot;&gt;\nhttp://desibbrg.org/images/41750931003069203332.png&lt;/a&gt; &lt;a href=&quot;\nhttp://desibbrg.org/images/09118965567902023478.png&quot; rel=&quot;nofollow&quot; target=&quot;_NEW&quot;&gt;\nhttp://desibbrg.org/images/09118965567902023478.png&lt;/a&gt; &lt;a href=&quot;\nhttp://desibbrg.org/images/05212072637220863427.png&quot; rel=&quot;nofollow&quot; target=&quot;_NEW&quot;&gt;\nhttp://desibbrg.org/images/05212072637220863427.png&lt;/a&gt;\n\nMedia Info - \nVideo\nID : 0\nFormat : MPEG-4 Visual\nFormat profile : Advanced Simple@L5\nFormat settings, BVOP : 2\nFormat settings, QPel : Yes\nFormat settings, GMC : No warppoints\nFormat settings, Matrix : Default (H.263)\nCodec ID : XVID\nCodec ID/Hint : XviD\nDuration : 2h 1mn\nBit rate : 1 257 Kbps\nWidth : 720 pixels\nHeight : 304 pixels\nDisplay aspect ratio : 2.35:1\nFrame rate : 25.000 fps\nColor space : YUV\nChroma subsampling : 4:2:0\nBit depth : 8 bits\nScan type : Progressive\nCompression mode : Lossy\nBits/(Pixel*Frame) : 0.230\nStream size : 1.06 GiB (73%)\nWriting library : XviD 1.2.1 (UTC 2008-12-04)\n\nAudio\nID : 1\nFormat : AC-3\nFormat/Info : Audio Coding 3\nMode extension : CM (complete main)\nCodec ID : 2000\nDuration : 2h 1mn\nBit rate mode : Constant\nBit rate : 448 Kbps\nChannel(s) : 2 channels\nChannel positions : Front: L R\nSampling rate : 48.0 KHz\nBit depth : 16 bits\nCompression mode : Lossy\nStream size : 388 MiB (26%)\nAlignment : Aligned on interleaves\nInterleave, duration : 64 ms (1.60 video frames)\nInterleave, preload duration : 192 ms\nTitle : N.S F - [0]\n\nRipper : Master Mind\n\nSeeding 24x7... Extreme Seeding...\n\n\nEnjoy!\n","torrent":{"xt":"urn:btih:2581059b1a2f8b8f8c3a91435c0a7f7499c808af","amp;dn":"Nautanki+Saala+2013+1%2F3+DVDScrRip+Xvid+AC3+%28IcTv%29+-+Hindi","amp;tr":["udp%3A%2F%2Ftracker.openbittorrent.com%3A80","udp%3A%2F%2Fopen.demonii.com%3A1337","udp%3A%2F%2Ftracker.coppersurfer.tk%3A6969","udp%3A%2F%2Fexodus.desync.com%3A6969"],"infoHash":"2581059b1a2f8b8f8c3a91435c0a7f7499c808af","infoHashBuffer":{"type":"Buffer","data":[37,129,5,155,26,47,139,143,140,58,145,67,92,10,127,116,153,200,8,175]},"announce":[],"urlList":[]}}